<svg id="Capa_1" data-name="Capa 1" xmlns="http://www.w3.org/2000/svg" viewBox="0 0 100 100"><defs><style>.cls-1,.cls-2,.cls-3{fill:#fff;}.cls-1{opacity:0.8;}.cls-2{opacity:0.3;}</style></defs><title>shield</title><path class="cls-1" d="M86.14,13.4l-5.8-2.24c-4,40.67-23.26,64-55.89,68.19L46.64,98.57a5.13,5.13,0,0,0,6.72,0L78.69,76.63a39.66,39.66,0,0,0,13.71-30V22.52A9.76,9.76,0,0,0,86.14,13.4Z"/><path class="cls-2" d="M80.34,11.16,53.51.83a9.77,9.77,0,0,0-7,0L13.86,13.4A9.76,9.76,0,0,0,7.6,22.52V46.64a39.66,39.66,0,0,0,13.71,30l3.14,2.72C57.08,75.15,76.35,51.83,80.34,11.16Z"/><path class="cls-3" d="M75.13,42A7.64,7.64,0,0,0,64.46,31.1h0l-.39.35h0L43.43,50.71l-7-6.72h0a7.65,7.65,0,0,0-12,9.51,7.87,7.87,0,0,0,1.63,1.58l12.2,11.75a7.85,7.85,0,0,0,1.47,1.41l0,0h0a7.63,7.63,0,0,0,10.07-1l24.9-24.89.29-.29.11-.11Z"/></svg>