<?xml version="1.0" encoding="utf-8"?>
<!-- Generator: Adobe Illustrator 23.0.5, SVG Export Plug-In . SVG Version: 6.00 Build 0)  -->
<svg version="1.1" id="Capa_1" xmlns="http://www.w3.org/2000/svg" xmlns:xlink="http://www.w3.org/1999/xlink" x="0px" y="0px"
	 viewBox="0 0 100 100" style="enable-background:new 0 0 100 100;" xml:space="preserve">
<style type="text/css">
	.st0{fill:#FFFFFF;}
</style>
<g>
	<g>
		<path class="st0" d="M36.6,7H17.4c-5.5,0-9.9,4.4-9.9,9.9v19.2c0,5.5,4.4,9.9,9.9,9.9h19.2c5.5,0,9.9-4.4,9.9-9.9V16.9
			C46.5,11.4,42.1,7,36.6,7z"/>
	</g>
	<g>
		<path class="st0" d="M82.6,7H63.4c-5.5,0-9.9,4.4-9.9,9.9v19.2c0,5.5,4.4,9.9,9.9,9.9h19.2c5.5,0,9.9-4.4,9.9-9.9V16.9
			C92.5,11.4,88.1,7,82.6,7z"/>
	</g>
	<g>
		<path class="st0" d="M36.6,54H17.4c-5.5,0-9.9,4.4-9.9,9.9v19.2c0,5.5,4.4,9.9,9.9,9.9h19.2c5.5,0,9.9-4.4,9.9-9.9V63.9
			C46.5,58.4,42.1,54,36.6,54z"/>
	</g>
	<g>
		<path class="st0" d="M82.6,54H63.4c-5.5,0-9.9,4.4-9.9,9.9v19.2c0,5.5,4.4,9.9,9.9,9.9h19.2c5.5,0,9.9-4.4,9.9-9.9V63.9
			C92.5,58.4,88.1,54,82.6,54z"/>
	</g>
</g>
</svg>
