<svg id="Capa_1" data-name="Capa 1" xmlns="http://www.w3.org/2000/svg" viewBox="0 0 100 100"><defs><style>.cls-1,.cls-2,.cls-3{fill:#fff;}.cls-1{opacity:0.8;}.cls-2{opacity:0.3;}</style></defs><title>shield</title><path class="cls-1" d="M86.14,13.4l-5.8-2.24c-4,40.67-23.26,64-55.89,68.19L46.64,98.57a5.13,5.13,0,0,0,6.72,0L78.69,76.63a39.66,39.66,0,0,0,13.71-30V22.52A9.76,9.76,0,0,0,86.14,13.4Z"/><path class="cls-2" d="M80.34,11.16,53.51.83a9.77,9.77,0,0,0-7,0L13.86,13.4A9.76,9.76,0,0,0,7.6,22.52V46.64a39.66,39.66,0,0,0,13.71,30l3.14,2.72C57.08,75.15,76.35,51.83,80.34,11.16Z"/><rect class="cls-3" x="18.77" y="43.64" width="62.47" height="12.71" rx="6.36" transform="translate(120.71 50) rotate(135)"/><rect class="cls-3" x="18.77" y="43.64" width="62.47" height="12.71" rx="6.36" transform="translate(120.71 50) rotate(135)"/><rect class="cls-3" x="18.77" y="43.64" width="62.47" height="12.71" rx="6.36" transform="translate(50 120.71) rotate(-135)"/><rect class="cls-3" x="18.77" y="43.64" width="62.47" height="12.71" rx="6.36" transform="translate(50 120.71) rotate(-135)"/></svg>